<svg width="708" height="162" viewBox="0 0 708 162" fill="none" xmlns="http://www.w3.org/2000/svg">
<path fill-rule="evenodd" clip-rule="evenodd" d="M85.3931 0.619019C88.2811 0.619019 91.1681 0.825019 94.0561 1.03202C93.6431 1.03202 93.4371 1.23802 93.0251 1.23802C50.5351 2.06302 16.5011 37.538 16.5011 81.268C16.5011 124.998 50.5341 160.679 93.0251 161.505H94.0561C91.1681 161.711 88.2811 161.917 85.3931 161.917C38.3651 161.917 0.206062 125.817 0.206062 81.268C0.206062 36.719 38.3651 0.619019 85.3931 0.619019Z" fill="#00A44F"/>
<path fill-rule="evenodd" clip-rule="evenodd" d="M103.338 0.619019C100.45 0.619019 97.7691 0.825019 94.8811 1.03202C95.2204 1.12087 95.5646 1.18966 95.9121 1.23802C138.196 2.06302 172.436 37.538 172.436 81.268C172.436 124.998 138.196 160.679 95.9121 161.504H94.8811C97.7691 161.71 100.45 161.916 103.338 161.916C150.366 161.919 188.525 125.819 188.525 81.268C188.525 36.717 150.366 0.619019 103.338 0.619019Z" fill="#00A44F"/>
<path fill-rule="evenodd" clip-rule="evenodd" d="M94.469 7.63104C135.515 7.63104 168.93 40.631 168.93 81.267C168.93 121.903 135.515 154.903 94.469 154.903C53.216 154.903 20.008 121.903 20.008 81.267C20.008 40.631 53.216 7.63104 94.469 7.63104Z" fill="#00ACEF"/>
<path d="M152.016 68.273C151.191 68.273 150.366 69.098 149.747 71.161C149.071 73.2253 148.723 75.3829 148.716 77.555C148.716 80.649 149.541 82.093 150.985 82.093C151.604 82.093 152.222 81.4744 152.841 80.237C153.531 77.9636 153.879 75.6 153.872 73.224C153.903 71.9583 153.693 70.6983 153.253 69.511C153.202 69.2012 153.056 68.915 152.834 68.6929C152.612 68.4708 152.326 68.324 152.016 68.273V68.273ZM152.222 59.61C153.872 59.61 155.11 60.848 156.141 63.323C157.219 66.2932 157.71 69.4447 157.585 72.602C157.617 75.5108 157.341 78.4147 156.76 81.265C156.414 83.5576 155.718 85.7835 154.697 87.865C154.434 88.7932 153.849 89.5975 153.047 90.134C152.301 90.5803 151.44 90.7957 150.572 90.753C148.922 90.753 147.684 90.34 147.066 89.309C145.622 86.834 145.003 83.121 145.003 78.377C145.003 73.22 145.622 68.889 147.272 65.177C148.716 61.4657 150.366 59.61 152.222 59.61V59.61ZM141.703 90.756H137.165C135.721 90.756 134.69 89.725 133.865 87.25C132.948 84.3152 132.529 81.2473 132.627 78.174C132.505 73.7525 133.202 69.3464 134.685 65.179C135.923 61.466 137.573 59.61 139.429 59.61C140.667 59.61 141.698 60.641 142.523 62.291C143.408 64.4499 143.831 66.7699 143.765 69.102C143.817 70.7742 143.608 72.4442 143.146 74.052C142.733 75.29 142.115 75.908 141.496 75.908C140.671 75.908 140.052 74.877 140.052 72.608V70.748C140.052 68.892 139.846 68.067 139.021 68.067C138.402 68.067 137.783 68.892 137.165 70.748C136.56 72.7532 136.282 74.8425 136.34 76.936C136.254 78.2721 136.465 79.6106 136.959 80.855C137.203 81.2827 137.569 81.6285 138.009 81.8488C138.45 82.0691 138.945 82.1541 139.434 82.093H142.322C143.766 82.093 144.385 83.331 144.385 85.599C144.477 86.9565 144.191 88.3128 143.56 89.518C143.411 89.887 143.154 90.2025 142.822 90.4233C142.491 90.6441 142.101 90.76 141.703 90.756V90.756ZM126.439 71.156L126.233 73.012C125.82 75.693 124.995 76.931 124.17 76.931C123.757 76.931 123.345 76.518 123.139 75.9C122.717 75.0702 122.505 74.1498 122.52 73.219C122.578 71.9738 122.716 70.7335 122.933 69.506L125.202 58.785C125.615 56.104 126.233 54.866 127.058 54.866C127.471 54.866 127.883 55.072 128.089 55.897C128.442 56.5979 128.585 57.3857 128.502 58.166V61.466C128.505 63.1352 128.712 64.7977 129.121 66.416L130.152 69.716C130.967 72.7442 131.381 75.8661 131.385 79.002C131.499 81.8909 131.007 84.7716 129.941 87.459C128.91 89.728 127.672 90.759 126.228 90.759H122.928C121.484 90.759 120.865 89.728 120.865 87.253C120.744 85.9595 121.033 84.6607 121.69 83.54C121.795 83.1272 122.034 82.7609 122.37 82.4994C122.706 82.2379 123.12 82.0959 123.546 82.096H125.408C126.852 82.096 127.677 80.652 127.677 77.971C127.616 76.8628 127.478 75.7601 127.264 74.671L126.439 71.156ZM111.176 82.302H111.585C112.41 82.302 113.029 81.477 113.235 79.621L114.27 72.602C114.432 71.8571 114.501 71.095 114.476 70.333C114.539 69.6862 114.394 69.0363 114.063 68.477C113.857 68.064 113.444 67.652 113.238 67.652C112.413 67.652 111.588 68.89 110.969 71.158C110.142 73.4033 109.723 75.7783 109.731 78.171C109.732 80.855 110.144 82.302 111.176 82.302ZM116.951 82.096H118.601C120.045 82.096 120.664 83.334 120.664 85.602C120.756 86.9595 120.47 88.3158 119.839 89.521C119.689 89.889 119.433 90.2034 119.102 90.4237C118.771 90.6439 118.382 90.7597 117.985 90.756H115.922C115.097 90.756 114.478 89.931 114.066 88.075C113.241 89.931 112.416 90.756 111.797 90.756H109.941C108.703 90.756 107.878 89.725 107.053 87.662C106.312 84.9761 105.964 82.1968 106.022 79.411C106.007 74.7957 106.703 70.2056 108.085 65.802C109.529 61.677 111.179 59.614 112.829 59.614C114.273 59.614 115.304 60.8517 115.923 63.327C116.336 61.264 117.161 60.233 117.986 60.233C118.399 60.233 118.811 60.6457 119.224 61.471C119.494 62.3392 119.633 63.2428 119.637 64.152C119.637 64.771 119.431 65.802 119.431 66.833L119.225 67.864L116.951 82.096ZM101.688 82.096H103.338C104.576 82.096 105.401 83.334 105.401 85.602C105.493 86.9595 105.207 88.3158 104.576 89.521C104.427 89.8899 104.17 90.2052 103.839 90.426C103.508 90.6468 103.118 90.7628 102.72 90.759H99.832C99.4055 90.7592 98.9912 90.617 98.6548 90.3548C98.3183 90.0927 98.0791 89.7257 97.975 89.312C97.4976 88.1351 97.2862 86.8672 97.356 85.599C97.3424 84.2131 97.4809 82.8298 97.769 81.474L104.163 41.874L104.369 40.843C104.785 37.746 105.607 36.302 106.638 36.302C107.051 36.302 107.463 36.715 107.669 37.333C108.09 38.1635 108.301 39.0842 108.285 40.015C108.285 40.84 108.079 41.871 108.079 42.696L107.873 43.934L101.688 82.096ZM87.868 79.621C88.281 80.652 88.487 81.477 88.693 81.89C89.0369 82.1824 89.4806 82.3301 89.931 82.302C90.55 82.302 91.169 81.683 91.581 80.239C92.4104 77.356 92.8272 74.37 92.819 71.37C92.819 68.895 92.406 67.657 91.375 67.657C90.344 67.657 89.519 69.101 89.106 72.195C89.106 72.608 89.106 72.814 88.9 73.02L87.868 79.621ZM86.63 87.665L82.711 111.798H151.81C152.223 111.798 152.429 112.004 152.429 113.036V116.749C152.429 117.368 152.429 117.987 152.016 117.987H81.061C80.03 117.987 78.38 118.4 78.38 115.099C78.38 114.274 78.586 113.036 78.793 111.386L86.424 63.941C86.837 61.466 87.662 60.228 88.487 60.228C89.106 60.228 89.725 61.053 90.137 62.703C90.962 60.64 91.787 59.609 92.818 59.609C94.056 59.609 94.881 60.847 95.499 62.909C96.226 65.5978 96.573 68.3751 96.53 71.16C96.53 77.76 95.705 83.123 94.055 87.249C93.7755 88.3429 93.2054 89.3407 92.405 90.137C91.7497 90.6135 90.9426 90.8337 90.136 90.756C89.3591 90.7797 88.5859 90.6389 87.867 90.343C87.2526 89.5573 86.8291 88.6395 86.63 87.662V87.665ZM78.792 82.092H80.649C81.887 82.092 82.712 83.33 82.712 85.598C82.7021 86.9464 82.4216 88.2791 81.887 89.517C81.7377 89.8859 81.4808 90.2012 81.1498 90.422C80.8187 90.6428 80.4289 90.7588 80.031 90.755H76.525C75.906 90.755 75.494 90.342 75.081 89.311C74.4717 88.1721 74.1863 86.8879 74.256 85.598C74.3309 84.2065 74.5382 82.8253 74.875 81.473L76.113 72.81C76.2652 72.1333 76.3344 71.4405 76.319 70.747C76.3821 70.1885 76.3115 69.6229 76.113 69.097C75.907 68.478 75.7 68.272 75.288 68.272C74.257 68.272 73.225 70.335 72.607 74.46L70.751 86.011C70.132 89.518 69.307 91.374 68.276 91.374C67.863 91.374 67.451 90.961 67.038 90.343C66.768 89.4748 66.6288 88.5713 66.625 87.662C66.6067 86.8321 66.6758 86.0025 66.831 85.187L67.037 83.949L70.337 64.149C70.75 61.468 71.368 60.23 72.4 60.23C73.225 60.23 73.844 61.261 74.05 62.911C75.288 60.848 76.319 59.611 77.35 59.611C78.381 59.611 79.206 60.436 79.825 61.88C80.5221 63.5809 80.8722 65.404 80.855 67.242C80.8099 68.6247 80.6723 70.0028 80.443 71.367L78.792 82.092ZM47.852 70.335H46.614C45.1256 70.3078 43.6596 70.6995 42.3831 71.4655C41.1066 72.2314 40.0712 73.3408 39.395 74.667C38.0283 76.72 37.1144 79.0405 36.714 81.474C35.9665 84.088 35.6189 86.8 35.683 89.518C35.5984 91.7482 35.877 93.9773 36.508 96.118C37.333 97.974 37.952 98.799 38.983 98.799C40.427 98.799 41.871 96.118 43.108 90.755L47.852 70.335ZM58.579 60.847L60.847 46.615C60.206 46.791 59.6218 47.1307 59.1517 47.6007C58.6817 48.0708 58.342 48.655 58.166 49.296C56.9846 52.1576 56.0866 55.1282 55.485 58.165L54.866 60.846L58.579 60.847ZM57.135 70.335H52.803L47.44 93.235C44.965 104.167 42.077 109.53 38.571 109.53C36.508 109.53 34.858 107.674 33.414 103.755C31.97 100.042 31.351 95.504 31.351 89.935C31.2635 85.4786 31.8192 81.0328 33.001 76.735C33.8224 73.0678 35.2893 69.5758 37.333 66.422C38.5329 64.6089 40.1626 63.1207 42.077 62.09C44.2231 61.1676 46.5506 60.7443 48.884 60.852H50.122L51.36 55.077C53.01 47.033 55.279 41.67 57.754 38.782C58.5908 37.9495 59.5909 37.2994 60.6914 36.8725C61.7918 36.4457 62.9688 36.2515 64.148 36.302C64.767 36.302 65.179 36.715 65.592 37.333C66.035 38.3026 66.2469 39.3617 66.211 40.427C66.2361 41.189 66.1669 41.9511 66.005 42.696L65.799 43.521L63.118 60.847H64.768C66.006 60.847 66.624 62.085 66.624 64.766C66.5913 66.1119 66.3117 67.4402 65.799 68.685C65.386 69.716 64.768 70.335 63.943 70.335H61.674L59.818 81.267H62.91C63.941 81.267 64.56 82.505 64.56 85.186C64.5893 86.5189 64.3797 87.8461 63.941 89.105C63.322 90.343 62.91 90.755 62.085 90.755H58.372C57.341 90.755 56.722 90.136 56.103 89.105C55.4768 87.6053 55.1949 85.9842 55.278 84.361C55.3377 82.2863 55.5446 80.2185 55.897 78.173" fill="#FEFEFE"/>
<path d="M231.429 72L229.449 66.996H219.585L217.713 72H211.017L221.709 46.512H227.685L238.269 72H231.429ZM224.589 53.316L221.349 62.064H227.757L224.589 53.316Z" fill="#00ACEF"/>
<path d="M256.576 72L246.316 55.332H246.208L246.352 72H240.376V46.512H247.396L257.62 63.144H257.728L257.584 46.512H263.56V72H256.576Z" fill="#00ACEF"/>
<path d="M294.017 72L283.757 55.332H283.649L283.793 72H277.817V46.512H284.837L295.061 63.144H295.169L295.025 46.512H301.001V72H294.017Z" fill="#00ACEF"/>
<path d="M322.35 72V61.344H312.414V72H306.258V46.512H312.414V56.16H322.35V46.512H328.506V72H322.35Z" fill="#00ACEF"/>
<path d="M351.031 72L349.051 66.996H339.187L337.315 72H330.619L341.311 46.512H347.287L357.871 72H351.031ZM344.191 53.316L340.951 62.064H347.359L344.191 53.316Z" fill="#00ACEF"/>
<path d="M368.741 51.768V72H362.585V51.768H355.385V46.512H375.941V51.768H368.741Z" fill="#00ACEF"/>
<path d="M406.204 54.36C406.204 55.848 405.928 57.108 405.376 58.14C404.824 59.148 404.08 59.964 403.144 60.588C402.208 61.212 401.128 61.668 399.904 61.956C398.68 62.244 397.408 62.388 396.088 62.388H393.028V72H386.872V46.512H396.232C397.624 46.512 398.92 46.656 400.12 46.944C401.344 47.208 402.4 47.652 403.288 48.276C404.2 48.876 404.908 49.68 405.412 50.688C405.94 51.672 406.204 52.896 406.204 54.36ZM400.048 54.396C400.048 53.796 399.928 53.304 399.688 52.92C399.448 52.536 399.124 52.236 398.716 52.02C398.308 51.804 397.84 51.66 397.312 51.588C396.808 51.516 396.28 51.48 395.728 51.48H393.028V57.492H395.62C396.196 57.492 396.748 57.444 397.276 57.348C397.804 57.252 398.272 57.084 398.68 56.844C399.112 56.604 399.448 56.292 399.688 55.908C399.928 55.5 400.048 54.996 400.048 54.396Z" fill="#00ACEF"/>
<path d="M409.899 72V46.512H416.091V66.636H425.955V72H409.899Z" fill="#00ACEF"/>
<path d="M446.128 72L444.148 66.996H434.284L432.412 72H425.716L436.408 46.512H442.384L452.968 72H446.128ZM439.288 53.316L436.048 62.064H442.456L439.288 53.316Z" fill="#00ACEF"/>
<path d="M468.539 53.136C468.011 52.464 467.315 51.936 466.451 51.552C465.611 51.144 464.795 50.94 464.003 50.94C463.595 50.94 463.175 50.976 462.743 51.048C462.335 51.12 461.963 51.264 461.627 51.48C461.291 51.672 461.003 51.936 460.763 52.272C460.547 52.584 460.439 52.992 460.439 53.496C460.439 53.928 460.523 54.288 460.691 54.576C460.883 54.864 461.147 55.116 461.483 55.332C461.843 55.548 462.263 55.752 462.743 55.944C463.223 56.112 463.763 56.292 464.363 56.484C465.227 56.772 466.127 57.096 467.063 57.456C467.999 57.792 468.851 58.248 469.619 58.824C470.387 59.4 471.023 60.12 471.527 60.984C472.031 61.824 472.283 62.88 472.283 64.152C472.283 65.616 472.007 66.888 471.455 67.968C470.927 69.024 470.207 69.9 469.295 70.596C468.383 71.292 467.339 71.808 466.163 72.144C464.987 72.48 463.775 72.648 462.527 72.648C460.703 72.648 458.939 72.336 457.235 71.712C455.531 71.064 454.115 70.152 452.987 68.976L457.019 64.872C457.643 65.64 458.459 66.288 459.467 66.816C460.499 67.32 461.519 67.572 462.527 67.572C462.983 67.572 463.427 67.524 463.859 67.428C464.291 67.332 464.663 67.176 464.975 66.96C465.311 66.744 465.575 66.456 465.767 66.096C465.959 65.736 466.055 65.304 466.055 64.8C466.055 64.32 465.935 63.912 465.695 63.576C465.455 63.24 465.107 62.94 464.651 62.676C464.219 62.388 463.667 62.136 462.995 61.92C462.347 61.68 461.603 61.428 460.763 61.164C459.947 60.9 459.143 60.588 458.351 60.228C457.583 59.868 456.887 59.412 456.263 58.86C455.663 58.284 455.171 57.6 454.787 56.808C454.427 55.992 454.247 55.008 454.247 53.856C454.247 52.44 454.535 51.228 455.111 50.22C455.687 49.212 456.443 48.384 457.379 47.736C458.315 47.088 459.371 46.62 460.547 46.332C461.723 46.02 462.911 45.864 464.111 45.864C465.551 45.864 467.015 46.128 468.503 46.656C470.015 47.184 471.335 47.964 472.463 48.996L468.539 53.136Z" fill="#00ACEF"/>
<path d="M486.795 51.768V72H480.639V51.768H473.439V46.512H493.995V51.768H486.795Z" fill="#00ACEF"/>
<path d="M496.805 72V46.512H502.997V72H496.805Z" fill="#00ACEF"/>
<path d="M530.694 68.472C529.566 69.768 528.174 70.8 526.518 71.568C524.862 72.312 522.954 72.684 520.794 72.684C518.826 72.684 517.002 72.36 515.322 71.712C513.666 71.064 512.226 70.152 511.002 68.976C509.778 67.776 508.818 66.348 508.122 64.692C507.426 63.036 507.078 61.212 507.078 59.22C507.078 57.18 507.426 55.332 508.122 53.676C508.842 52.02 509.826 50.616 511.074 49.464C512.322 48.288 513.786 47.388 515.466 46.764C517.146 46.14 518.958 45.828 520.902 45.828C522.702 45.828 524.466 46.152 526.194 46.8C527.946 47.424 529.362 48.348 530.442 49.572L526.266 53.748C525.69 52.956 524.934 52.368 523.998 51.984C523.062 51.6 522.102 51.408 521.118 51.408C520.038 51.408 519.042 51.612 518.13 52.02C517.242 52.404 516.474 52.944 515.826 53.64C515.178 54.336 514.674 55.164 514.314 56.124C513.954 57.06 513.774 58.092 513.774 59.22C513.774 60.372 513.954 61.428 514.314 62.388C514.674 63.348 515.166 64.176 515.79 64.872C516.438 65.544 517.206 66.072 518.094 66.456C518.982 66.84 519.954 67.032 521.01 67.032C522.234 67.032 523.302 66.792 524.214 66.312C525.126 65.832 525.858 65.208 526.41 64.44L530.694 68.472Z" fill="#00ACEF"/>
<path d="M546.797 53.136C546.269 52.464 545.573 51.936 544.709 51.552C543.869 51.144 543.053 50.94 542.261 50.94C541.853 50.94 541.433 50.976 541.001 51.048C540.593 51.12 540.221 51.264 539.885 51.48C539.549 51.672 539.261 51.936 539.021 52.272C538.805 52.584 538.697 52.992 538.697 53.496C538.697 53.928 538.781 54.288 538.949 54.576C539.141 54.864 539.405 55.116 539.741 55.332C540.101 55.548 540.521 55.752 541.001 55.944C541.481 56.112 542.021 56.292 542.621 56.484C543.485 56.772 544.385 57.096 545.321 57.456C546.257 57.792 547.109 58.248 547.877 58.824C548.645 59.4 549.281 60.12 549.785 60.984C550.289 61.824 550.541 62.88 550.541 64.152C550.541 65.616 550.265 66.888 549.713 67.968C549.185 69.024 548.465 69.9 547.553 70.596C546.641 71.292 545.597 71.808 544.421 72.144C543.245 72.48 542.033 72.648 540.785 72.648C538.961 72.648 537.197 72.336 535.493 71.712C533.789 71.064 532.373 70.152 531.245 68.976L535.277 64.872C535.901 65.64 536.717 66.288 537.725 66.816C538.757 67.32 539.777 67.572 540.785 67.572C541.241 67.572 541.685 67.524 542.117 67.428C542.549 67.332 542.921 67.176 543.233 66.96C543.569 66.744 543.833 66.456 544.025 66.096C544.217 65.736 544.313 65.304 544.313 64.8C544.313 64.32 544.193 63.912 543.953 63.576C543.713 63.24 543.365 62.94 542.909 62.676C542.477 62.388 541.925 62.136 541.253 61.92C540.605 61.68 539.861 61.428 539.021 61.164C538.205 60.9 537.401 60.588 536.609 60.228C535.841 59.868 535.145 59.412 534.521 58.86C533.921 58.284 533.429 57.6 533.045 56.808C532.685 55.992 532.505 55.008 532.505 53.856C532.505 52.44 532.793 51.228 533.369 50.22C533.945 49.212 534.701 48.384 535.637 47.736C536.573 47.088 537.629 46.62 538.805 46.332C539.981 46.02 541.169 45.864 542.369 45.864C543.809 45.864 545.273 46.128 546.761 46.656C548.273 47.184 549.593 47.964 550.721 48.996L546.797 53.136Z" fill="#00ACEF"/>
<path d="M586.03 68.472C584.902 69.768 583.51 70.8 581.854 71.568C580.198 72.312 578.29 72.684 576.13 72.684C574.162 72.684 572.338 72.36 570.658 71.712C569.002 71.064 567.562 70.152 566.338 68.976C565.114 67.776 564.154 66.348 563.458 64.692C562.762 63.036 562.414 61.212 562.414 59.22C562.414 57.18 562.762 55.332 563.458 53.676C564.178 52.02 565.162 50.616 566.41 49.464C567.658 48.288 569.122 47.388 570.802 46.764C572.482 46.14 574.294 45.828 576.238 45.828C578.038 45.828 579.802 46.152 581.53 46.8C583.282 47.424 584.698 48.348 585.778 49.572L581.602 53.748C581.026 52.956 580.27 52.368 579.334 51.984C578.398 51.6 577.438 51.408 576.454 51.408C575.374 51.408 574.378 51.612 573.466 52.02C572.578 52.404 571.81 52.944 571.162 53.64C570.514 54.336 570.01 55.164 569.65 56.124C569.29 57.06 569.11 58.092 569.11 59.22C569.11 60.372 569.29 61.428 569.65 62.388C570.01 63.348 570.502 64.176 571.126 64.872C571.774 65.544 572.542 66.072 573.43 66.456C574.318 66.84 575.29 67.032 576.346 67.032C577.57 67.032 578.638 66.792 579.55 66.312C580.462 65.832 581.194 65.208 581.746 64.44L586.03 68.472Z" fill="#00ACEF"/>
<path d="M614.815 59.148C614.815 61.164 614.467 63.012 613.771 64.692C613.075 66.348 612.103 67.776 610.855 68.976C609.631 70.152 608.167 71.064 606.463 71.712C604.759 72.36 602.911 72.684 600.919 72.684C598.927 72.684 597.079 72.36 595.375 71.712C593.695 71.064 592.231 70.152 590.983 68.976C589.759 67.776 588.799 66.348 588.103 64.692C587.407 63.012 587.059 61.164 587.059 59.148C587.059 57.108 587.407 55.272 588.103 53.64C588.799 51.984 589.759 50.58 590.983 49.428C592.231 48.276 593.695 47.388 595.375 46.764C597.079 46.14 598.927 45.828 600.919 45.828C602.911 45.828 604.759 46.14 606.463 46.764C608.167 47.388 609.631 48.276 610.855 49.428C612.103 50.58 613.075 51.984 613.771 53.64C614.467 55.272 614.815 57.108 614.815 59.148ZM608.227 59.148C608.227 58.044 608.047 57.012 607.687 56.052C607.327 55.092 606.823 54.276 606.175 53.604C605.551 52.908 604.783 52.368 603.871 51.984C602.983 51.576 601.999 51.372 600.919 51.372C599.839 51.372 598.855 51.576 597.967 51.984C597.079 52.368 596.311 52.908 595.663 53.604C595.015 54.276 594.511 55.092 594.151 56.052C593.815 57.012 593.647 58.044 593.647 59.148C593.647 60.3 593.827 61.368 594.187 62.352C594.547 63.312 595.039 64.14 595.663 64.836C596.311 65.532 597.079 66.084 597.967 66.492C598.855 66.876 599.839 67.068 600.919 67.068C601.999 67.068 602.983 66.876 603.871 66.492C604.759 66.084 605.527 65.532 606.175 64.836C606.823 64.14 607.327 63.312 607.687 62.352C608.047 61.368 608.227 60.3 608.227 59.148Z" fill="#00ACEF"/>
<path d="M623.553 68.832C623.553 69.84 623.193 70.68 622.473 71.352C621.777 72.024 620.937 72.36 619.953 72.36C619.449 72.36 618.969 72.264 618.513 72.072C618.081 71.904 617.697 71.664 617.361 71.352C617.025 71.04 616.761 70.68 616.569 70.272C616.377 69.84 616.281 69.372 616.281 68.868C616.281 68.388 616.377 67.932 616.569 67.5C616.761 67.068 617.025 66.696 617.361 66.384C617.697 66.048 618.081 65.784 618.513 65.592C618.969 65.4 619.449 65.304 619.953 65.304C620.937 65.304 621.777 65.64 622.473 66.312C623.193 66.984 623.553 67.824 623.553 68.832Z" fill="#00ACEF"/>
<path d="M630.89 76.464H626.03L628.73 66.24H634.382L630.89 76.464Z" fill="#00ACEF"/>
<path d="M646.641 72V46.512H652.833V66.636H662.697V72H646.641Z" fill="#00ACEF"/>
<path d="M673.651 51.768V72H667.495V51.768H660.295V46.512H680.851V51.768H673.651Z" fill="#00ACEF"/>
<path d="M707.457 59.184C707.457 61.416 707.037 63.348 706.197 64.98C705.381 66.588 704.289 67.92 702.921 68.976C701.577 70.008 700.053 70.776 698.349 71.28C696.645 71.76 694.917 72 693.165 72H683.661V46.512H692.877C694.677 46.512 696.453 46.728 698.205 47.16C699.957 47.568 701.517 48.264 702.885 49.248C704.253 50.208 705.357 51.504 706.197 53.136C707.037 54.768 707.457 56.784 707.457 59.184ZM701.049 59.184C701.049 57.744 700.809 56.556 700.329 55.62C699.873 54.66 699.249 53.904 698.457 53.352C697.689 52.776 696.801 52.368 695.793 52.128C694.809 51.888 693.789 51.768 692.733 51.768H689.673V66.672H692.589C693.693 66.672 694.749 66.552 695.757 66.312C696.789 66.048 697.689 65.628 698.457 65.052C699.249 64.476 699.873 63.708 700.329 62.748C700.809 61.788 701.049 60.6 701.049 59.184Z" fill="#00ACEF"/>
<path d="M210.701 93.76H214.841L218.951 109.36H219.011L223.691 93.76H227.591L232.181 109.36H232.241L236.441 93.76H240.461L234.251 115H230.591L225.611 99.07H225.551L220.571 115H216.911L210.701 93.76Z" fill="#006C96"/>
<path d="M250.808 100.18C251.748 100.18 252.548 100.35 253.208 100.69C253.888 101.01 254.438 101.44 254.858 101.98C255.298 102.52 255.618 103.14 255.818 103.84C256.018 104.54 256.118 105.26 256.118 106V115H252.518V107.08C252.518 106.66 252.488 106.23 252.428 105.79C252.368 105.33 252.238 104.92 252.038 104.56C251.858 104.18 251.588 103.87 251.228 103.63C250.888 103.39 250.428 103.27 249.848 103.27C249.268 103.27 248.768 103.38 248.348 103.6C247.928 103.82 247.578 104.12 247.298 104.5C247.018 104.86 246.808 105.27 246.668 105.73C246.528 106.19 246.458 106.66 246.458 107.14V115H242.858V92.32H246.458V102.61H246.518C246.658 102.31 246.858 102.02 247.118 101.74C247.398 101.44 247.718 101.18 248.078 100.96C248.438 100.72 248.848 100.53 249.308 100.39C249.768 100.25 250.268 100.18 250.808 100.18Z" fill="#006C96"/>
<path d="M270.458 106.36C270.458 105.9 270.388 105.46 270.248 105.04C270.128 104.62 269.928 104.25 269.648 103.93C269.368 103.61 269.008 103.36 268.568 103.18C268.148 102.98 267.648 102.88 267.068 102.88C265.988 102.88 265.068 103.21 264.308 103.87C263.568 104.51 263.158 105.34 263.078 106.36H270.458ZM274.058 107.98C274.058 108.14 274.058 108.3 274.058 108.46C274.058 108.62 274.048 108.78 274.028 108.94H263.078C263.118 109.46 263.248 109.94 263.468 110.38C263.708 110.8 264.018 111.17 264.398 111.49C264.778 111.79 265.208 112.03 265.688 112.21C266.168 112.39 266.668 112.48 267.188 112.48C268.088 112.48 268.848 112.32 269.468 112C270.088 111.66 270.598 111.2 270.998 110.62L273.398 112.54C271.978 114.46 269.918 115.42 267.218 115.42C266.098 115.42 265.068 115.25 264.128 114.91C263.188 114.55 262.368 114.05 261.668 113.41C260.988 112.77 260.448 111.99 260.048 111.07C259.668 110.13 259.478 109.07 259.478 107.89C259.478 106.73 259.668 105.68 260.048 104.74C260.448 103.78 260.988 102.97 261.668 102.31C262.348 101.63 263.148 101.11 264.068 100.75C265.008 100.37 266.018 100.18 267.098 100.18C268.098 100.18 269.018 100.35 269.858 100.69C270.718 101.01 271.458 101.5 272.078 102.16C272.698 102.8 273.178 103.61 273.518 104.59C273.878 105.55 274.058 106.68 274.058 107.98Z" fill="#006C96"/>
<path d="M277.544 100.6H280.994V103H281.054C281.454 102.16 282.014 101.48 282.734 100.96C283.454 100.44 284.294 100.18 285.254 100.18C285.394 100.18 285.544 100.19 285.704 100.21C285.864 100.21 286.004 100.23 286.124 100.27V103.57C285.884 103.51 285.674 103.47 285.494 103.45C285.334 103.43 285.174 103.42 285.014 103.42C284.194 103.42 283.534 103.57 283.034 103.87C282.534 104.17 282.144 104.53 281.864 104.95C281.584 105.37 281.394 105.8 281.294 106.24C281.194 106.68 281.144 107.03 281.144 107.29V115H277.544V100.6Z" fill="#006C96"/>
<path d="M298.085 106.36C298.085 105.9 298.015 105.46 297.875 105.04C297.755 104.62 297.555 104.25 297.275 103.93C296.995 103.61 296.635 103.36 296.195 103.18C295.775 102.98 295.275 102.88 294.695 102.88C293.615 102.88 292.695 103.21 291.935 103.87C291.195 104.51 290.785 105.34 290.705 106.36H298.085ZM301.685 107.98C301.685 108.14 301.685 108.3 301.685 108.46C301.685 108.62 301.675 108.78 301.655 108.94H290.705C290.745 109.46 290.875 109.94 291.095 110.38C291.335 110.8 291.645 111.17 292.025 111.49C292.405 111.79 292.835 112.03 293.315 112.21C293.795 112.39 294.295 112.48 294.815 112.48C295.715 112.48 296.475 112.32 297.095 112C297.715 111.66 298.225 111.2 298.625 110.62L301.025 112.54C299.605 114.46 297.545 115.42 294.845 115.42C293.725 115.42 292.695 115.25 291.755 114.91C290.815 114.55 289.995 114.05 289.295 113.41C288.615 112.77 288.075 111.99 287.675 111.07C287.295 110.13 287.105 109.07 287.105 107.89C287.105 106.73 287.295 105.68 287.675 104.74C288.075 103.78 288.615 102.97 289.295 102.31C289.975 101.63 290.775 101.11 291.695 100.75C292.635 100.37 293.645 100.18 294.725 100.18C295.725 100.18 296.645 100.35 297.485 100.69C298.345 101.01 299.085 101.5 299.705 102.16C300.325 102.8 300.805 103.61 301.145 104.59C301.505 105.55 301.685 106.68 301.685 107.98Z" fill="#006C96"/>
<path d="M312.731 100.6H316.331V115H312.731V100.6ZM312.221 95.71C312.221 95.13 312.431 94.63 312.851 94.21C313.291 93.77 313.841 93.55 314.501 93.55C315.161 93.55 315.711 93.76 316.151 94.18C316.611 94.58 316.841 95.09 316.841 95.71C316.841 96.33 316.611 96.85 316.151 97.27C315.711 97.67 315.161 97.87 314.501 97.87C313.841 97.87 313.291 97.66 312.851 97.24C312.431 96.8 312.221 96.29 312.221 95.71Z" fill="#006C96"/>
<path d="M337.889 100.18C338.829 100.18 339.629 100.35 340.289 100.69C340.969 101.01 341.519 101.44 341.939 101.98C342.379 102.52 342.699 103.14 342.899 103.84C343.099 104.54 343.199 105.26 343.199 106V115H339.599V107.02C339.599 106.6 339.569 106.16 339.509 105.7C339.449 105.24 339.319 104.83 339.119 104.47C338.919 104.09 338.639 103.78 338.279 103.54C337.939 103.3 337.479 103.18 336.899 103.18C336.339 103.18 335.859 103.3 335.459 103.54C335.059 103.78 334.729 104.09 334.469 104.47C334.209 104.85 334.019 105.28 333.899 105.76C333.779 106.22 333.719 106.68 333.719 107.14V115H330.119V106.3C330.119 105.4 329.899 104.66 329.459 104.08C329.039 103.48 328.369 103.18 327.449 103.18C326.909 103.18 326.439 103.3 326.039 103.54C325.639 103.76 325.309 104.05 325.049 104.41C324.809 104.77 324.619 105.19 324.479 105.67C324.359 106.13 324.299 106.6 324.299 107.08V115H320.699V100.6H324.119V102.91H324.179C324.339 102.55 324.549 102.21 324.809 101.89C325.089 101.57 325.409 101.28 325.769 101.02C326.149 100.76 326.579 100.56 327.059 100.42C327.539 100.26 328.069 100.18 328.649 100.18C329.769 100.18 330.699 100.43 331.439 100.93C332.179 101.43 332.749 102.09 333.149 102.91C333.629 102.03 334.269 101.36 335.069 100.9C335.869 100.42 336.809 100.18 337.889 100.18Z" fill="#006C96"/>
<path d="M356.328 113.17H356.238C355.878 113.81 355.298 114.34 354.498 114.76C353.698 115.16 352.788 115.36 351.768 115.36C351.188 115.36 350.578 115.28 349.938 115.12C349.318 114.98 348.738 114.74 348.198 114.4C347.678 114.04 347.238 113.58 346.878 113.02C346.538 112.44 346.368 111.73 346.368 110.89C346.368 109.81 346.668 108.95 347.268 108.31C347.888 107.67 348.678 107.18 349.638 106.84C350.598 106.5 351.658 106.28 352.818 106.18C353.998 106.06 355.148 106 356.268 106V105.64C356.268 104.74 355.938 104.08 355.278 103.66C354.638 103.22 353.868 103 352.968 103C352.208 103 351.478 103.16 350.778 103.48C350.078 103.8 349.498 104.19 349.038 104.65L347.178 102.46C347.998 101.7 348.938 101.13 349.998 100.75C351.078 100.37 352.168 100.18 353.268 100.18C354.548 100.18 355.598 100.36 356.418 100.72C357.258 101.08 357.918 101.55 358.398 102.13C358.878 102.71 359.208 103.36 359.388 104.08C359.588 104.8 359.688 105.52 359.688 106.24V115H356.328V113.17ZM356.268 108.43H355.458C354.878 108.43 354.268 108.46 353.628 108.52C352.988 108.56 352.398 108.67 351.858 108.85C351.318 109.01 350.868 109.25 350.508 109.57C350.148 109.87 349.968 110.29 349.968 110.83C349.968 111.17 350.038 111.46 350.178 111.7C350.338 111.92 350.538 112.1 350.778 112.24C351.018 112.38 351.288 112.48 351.588 112.54C351.888 112.6 352.188 112.63 352.488 112.63C353.728 112.63 354.668 112.3 355.308 111.64C355.948 110.98 356.268 110.08 356.268 108.94V108.43Z" fill="#006C96"/>
<path d="M378.522 100.6V113.71C378.522 115.01 378.362 116.18 378.042 117.22C377.722 118.28 377.222 119.17 376.542 119.89C375.882 120.63 375.042 121.2 374.022 121.6C373.002 122 371.792 122.2 370.392 122.2C369.812 122.2 369.192 122.15 368.532 122.05C367.892 121.95 367.252 121.8 366.612 121.6C365.992 121.4 365.392 121.15 364.812 120.85C364.232 120.55 363.712 120.21 363.252 119.83L365.322 117.04C366.022 117.7 366.812 118.2 367.692 118.54C368.572 118.9 369.462 119.08 370.362 119.08C371.222 119.08 371.942 118.95 372.522 118.69C373.122 118.45 373.592 118.11 373.932 117.67C374.292 117.23 374.542 116.71 374.682 116.11C374.842 115.51 374.922 114.85 374.922 114.13V113.08H374.862C374.342 113.78 373.672 114.32 372.852 114.7C372.052 115.06 371.152 115.24 370.152 115.24C369.072 115.24 368.092 115.04 367.212 114.64C366.332 114.24 365.582 113.7 364.962 113.02C364.362 112.34 363.892 111.55 363.552 110.65C363.212 109.73 363.042 108.76 363.042 107.74C363.042 106.7 363.202 105.72 363.522 104.8C363.862 103.88 364.332 103.08 364.932 102.4C365.552 101.72 366.292 101.18 367.152 100.78C368.032 100.38 369.012 100.18 370.092 100.18C371.112 100.18 372.062 100.39 372.942 100.81C373.822 101.23 374.522 101.88 375.042 102.76H375.102V100.6H378.522ZM370.842 103.12C370.182 103.12 369.592 103.24 369.072 103.48C368.572 103.72 368.142 104.05 367.782 104.47C367.442 104.87 367.172 105.35 366.972 105.91C366.792 106.47 366.702 107.07 366.702 107.71C366.702 108.29 366.792 108.85 366.972 109.39C367.172 109.93 367.442 110.42 367.782 110.86C368.142 111.28 368.572 111.62 369.072 111.88C369.592 112.14 370.172 112.27 370.812 112.27C371.472 112.27 372.062 112.15 372.582 111.91C373.122 111.65 373.572 111.31 373.932 110.89C374.312 110.47 374.602 109.99 374.802 109.45C375.002 108.89 375.102 108.31 375.102 107.71C375.102 107.09 375.002 106.5 374.802 105.94C374.602 105.38 374.312 104.89 373.932 104.47C373.572 104.05 373.132 103.72 372.612 103.48C372.092 103.24 371.502 103.12 370.842 103.12Z" fill="#006C96"/>
<path d="M382.897 100.6H386.497V115H382.897V100.6ZM382.387 95.71C382.387 95.13 382.597 94.63 383.017 94.21C383.457 93.77 384.007 93.55 384.667 93.55C385.327 93.55 385.877 93.76 386.317 94.18C386.777 94.58 387.007 95.09 387.007 95.71C387.007 96.33 386.777 96.85 386.317 97.27C385.877 97.67 385.327 97.87 384.667 97.87C384.007 97.87 383.457 97.66 383.017 97.24C382.597 96.8 382.387 96.29 382.387 95.71Z" fill="#006C96"/>
<path d="M390.865 100.6H394.285V102.91H394.345C394.665 102.19 395.215 101.56 395.995 101.02C396.795 100.46 397.735 100.18 398.815 100.18C399.755 100.18 400.555 100.35 401.215 100.69C401.895 101.01 402.445 101.44 402.865 101.98C403.305 102.52 403.625 103.14 403.825 103.84C404.025 104.54 404.125 105.26 404.125 106V115H400.525V107.02C400.525 106.6 400.495 106.16 400.435 105.7C400.375 105.24 400.245 104.83 400.045 104.47C399.845 104.09 399.565 103.78 399.205 103.54C398.865 103.3 398.405 103.18 397.825 103.18C397.245 103.18 396.745 103.3 396.325 103.54C395.905 103.76 395.555 104.05 395.275 104.41C395.015 104.77 394.815 105.19 394.675 105.67C394.535 106.13 394.465 106.6 394.465 107.08V115H390.865V100.6Z" fill="#006C96"/>
<path d="M417.266 113.17H417.176C416.816 113.81 416.236 114.34 415.436 114.76C414.636 115.16 413.726 115.36 412.706 115.36C412.126 115.36 411.516 115.28 410.876 115.12C410.256 114.98 409.676 114.74 409.136 114.4C408.616 114.04 408.176 113.58 407.816 113.02C407.476 112.44 407.306 111.73 407.306 110.89C407.306 109.81 407.606 108.95 408.206 108.31C408.826 107.67 409.616 107.18 410.576 106.84C411.536 106.5 412.596 106.28 413.756 106.18C414.936 106.06 416.086 106 417.206 106V105.64C417.206 104.74 416.876 104.08 416.216 103.66C415.576 103.22 414.806 103 413.906 103C413.146 103 412.416 103.16 411.716 103.48C411.016 103.8 410.436 104.19 409.976 104.65L408.116 102.46C408.936 101.7 409.876 101.13 410.936 100.75C412.016 100.37 413.106 100.18 414.206 100.18C415.486 100.18 416.536 100.36 417.356 100.72C418.196 101.08 418.856 101.55 419.336 102.13C419.816 102.71 420.146 103.36 420.326 104.08C420.526 104.8 420.626 105.52 420.626 106.24V115H417.266V113.17ZM417.206 108.43H416.396C415.816 108.43 415.206 108.46 414.566 108.52C413.926 108.56 413.336 108.67 412.796 108.85C412.256 109.01 411.806 109.25 411.446 109.57C411.086 109.87 410.906 110.29 410.906 110.83C410.906 111.17 410.976 111.46 411.116 111.7C411.276 111.92 411.476 112.1 411.716 112.24C411.956 112.38 412.226 112.48 412.526 112.54C412.826 112.6 413.126 112.63 413.426 112.63C414.666 112.63 415.606 112.3 416.246 111.64C416.886 110.98 417.206 110.08 417.206 108.94V108.43Z" fill="#006C96"/>
<path d="M422.457 103.48V100.6H424.977V96.43H428.517V100.6H432.117V103.48H428.517V110.17C428.517 110.81 428.627 111.34 428.847 111.76C429.087 112.18 429.607 112.39 430.407 112.39C430.647 112.39 430.907 112.37 431.187 112.33C431.467 112.27 431.717 112.19 431.937 112.09L432.057 114.91C431.737 115.03 431.357 115.12 430.917 115.18C430.477 115.26 430.057 115.3 429.657 115.3C428.697 115.3 427.917 115.17 427.317 114.91C426.717 114.63 426.237 114.26 425.877 113.8C425.537 113.32 425.297 112.78 425.157 112.18C425.037 111.56 424.977 110.9 424.977 110.2V103.48H422.457Z" fill="#006C96"/>
<path d="M434.782 100.6H438.382V115H434.782V100.6ZM434.272 95.71C434.272 95.13 434.482 94.63 434.902 94.21C435.342 93.77 435.892 93.55 436.552 93.55C437.212 93.55 437.762 93.76 438.202 94.18C438.662 94.58 438.892 95.09 438.892 95.71C438.892 96.33 438.662 96.85 438.202 97.27C437.762 97.67 437.212 97.87 436.552 97.87C435.892 97.87 435.342 97.66 434.902 97.24C434.482 96.8 434.272 96.29 434.272 95.71Z" fill="#006C96"/>
<path d="M441.909 107.74C441.909 106.6 442.109 105.57 442.509 104.65C442.929 103.71 443.489 102.91 444.189 102.25C444.889 101.59 445.719 101.08 446.679 100.72C447.639 100.36 448.659 100.18 449.739 100.18C450.819 100.18 451.839 100.36 452.799 100.72C453.759 101.08 454.589 101.59 455.289 102.25C455.989 102.91 456.539 103.71 456.939 104.65C457.359 105.57 457.569 106.6 457.569 107.74C457.569 108.88 457.359 109.92 456.939 110.86C456.539 111.8 455.989 112.61 455.289 113.29C454.589 113.95 453.759 114.47 452.799 114.85C451.839 115.23 450.819 115.42 449.739 115.42C448.659 115.42 447.639 115.23 446.679 114.85C445.719 114.47 444.889 113.95 444.189 113.29C443.489 112.61 442.929 111.8 442.509 110.86C442.109 109.92 441.909 108.88 441.909 107.74ZM445.569 107.74C445.569 108.3 445.649 108.86 445.809 109.42C445.989 109.98 446.249 110.48 446.589 110.92C446.929 111.36 447.359 111.72 447.879 112C448.399 112.28 449.019 112.42 449.739 112.42C450.459 112.42 451.079 112.28 451.599 112C452.119 111.72 452.549 111.36 452.889 110.92C453.229 110.48 453.479 109.98 453.639 109.42C453.819 108.86 453.909 108.3 453.909 107.74C453.909 107.18 453.819 106.63 453.639 106.09C453.479 105.53 453.229 105.03 452.889 104.59C452.549 104.15 452.119 103.8 451.599 103.54C451.079 103.26 450.459 103.12 449.739 103.12C449.019 103.12 448.399 103.26 447.879 103.54C447.359 103.8 446.929 104.15 446.589 104.59C446.249 105.03 445.989 105.53 445.809 106.09C445.649 106.63 445.569 107.18 445.569 107.74Z" fill="#006C96"/>
<path d="M461.06 100.6H464.48V102.91H464.54C464.86 102.19 465.41 101.56 466.19 101.02C466.99 100.46 467.93 100.18 469.01 100.18C469.95 100.18 470.75 100.35 471.41 100.69C472.09 101.01 472.64 101.44 473.06 101.98C473.5 102.52 473.82 103.14 474.02 103.84C474.22 104.54 474.32 105.26 474.32 106V115H470.72V107.02C470.72 106.6 470.69 106.16 470.63 105.7C470.57 105.24 470.44 104.83 470.24 104.47C470.04 104.09 469.76 103.78 469.4 103.54C469.06 103.3 468.6 103.18 468.02 103.18C467.44 103.18 466.94 103.3 466.52 103.54C466.1 103.76 465.75 104.05 465.47 104.41C465.21 104.77 465.01 105.19 464.87 105.67C464.73 106.13 464.66 106.6 464.66 107.08V115H461.06V100.6Z" fill="#006C96"/>
<path d="M489.681 92.32V102.43H489.771C489.951 102.19 490.181 101.94 490.461 101.68C490.741 101.42 491.071 101.18 491.451 100.96C491.851 100.74 492.311 100.56 492.831 100.42C493.351 100.26 493.941 100.18 494.601 100.18C495.621 100.18 496.561 100.38 497.421 100.78C498.281 101.16 499.021 101.69 499.641 102.37C500.261 103.05 500.741 103.85 501.081 104.77C501.421 105.69 501.591 106.68 501.591 107.74C501.591 108.8 501.421 109.8 501.081 110.74C500.761 111.66 500.291 112.47 499.671 113.17C499.071 113.85 498.331 114.4 497.451 114.82C496.591 115.22 495.611 115.42 494.511 115.42C493.491 115.42 492.531 115.2 491.631 114.76C490.751 114.32 490.061 113.68 489.561 112.84H489.501V115H486.081V92.32H489.681ZM497.931 107.74C497.931 107.18 497.841 106.63 497.661 106.09C497.501 105.53 497.251 105.03 496.911 104.59C496.571 104.15 496.141 103.8 495.621 103.54C495.101 103.26 494.491 103.12 493.791 103.12C493.131 103.12 492.541 103.26 492.021 103.54C491.501 103.82 491.051 104.18 490.671 104.62C490.311 105.06 490.031 105.56 489.831 106.12C489.651 106.68 489.561 107.24 489.561 107.8C489.561 108.36 489.651 108.92 489.831 109.48C490.031 110.02 490.311 110.51 490.671 110.95C491.051 111.39 491.501 111.75 492.021 112.03C492.541 112.29 493.131 112.42 493.791 112.42C494.491 112.42 495.101 112.28 495.621 112C496.141 111.72 496.571 111.36 496.911 110.92C497.251 110.48 497.501 109.98 497.661 109.42C497.841 108.86 497.931 108.3 497.931 107.74Z" fill="#006C96"/>
<path d="M515.204 106.36C515.204 105.9 515.134 105.46 514.994 105.04C514.874 104.62 514.674 104.25 514.394 103.93C514.114 103.61 513.754 103.36 513.314 103.18C512.894 102.98 512.394 102.88 511.814 102.88C510.734 102.88 509.814 103.21 509.054 103.87C508.314 104.51 507.904 105.34 507.824 106.36H515.204ZM518.804 107.98C518.804 108.14 518.804 108.3 518.804 108.46C518.804 108.62 518.794 108.78 518.774 108.94H507.824C507.864 109.46 507.994 109.94 508.214 110.38C508.454 110.8 508.764 111.17 509.144 111.49C509.524 111.79 509.954 112.03 510.434 112.21C510.914 112.39 511.414 112.48 511.934 112.48C512.834 112.48 513.594 112.32 514.214 112C514.834 111.66 515.344 111.2 515.744 110.62L518.144 112.54C516.724 114.46 514.664 115.42 511.964 115.42C510.844 115.42 509.814 115.25 508.874 114.91C507.934 114.55 507.114 114.05 506.414 113.41C505.734 112.77 505.194 111.99 504.794 111.07C504.414 110.13 504.224 109.07 504.224 107.89C504.224 106.73 504.414 105.68 504.794 104.74C505.194 103.78 505.734 102.97 506.414 102.31C507.094 101.63 507.894 101.11 508.814 100.75C509.754 100.37 510.764 100.18 511.844 100.18C512.844 100.18 513.764 100.35 514.604 100.69C515.464 101.01 516.204 101.5 516.824 102.16C517.444 102.8 517.924 103.61 518.264 104.59C518.624 105.55 518.804 106.68 518.804 107.98Z" fill="#006C96"/>
<path d="M532.13 104.59C531.85 104.19 531.43 103.86 530.87 103.6C530.31 103.32 529.74 103.18 529.16 103.18C528.5 103.18 527.92 103.32 527.42 103.6C526.92 103.86 526.5 104.21 526.16 104.65C525.84 105.09 525.6 105.59 525.44 106.15C525.28 106.69 525.2 107.24 525.2 107.8C525.2 108.36 525.28 108.92 525.44 109.48C525.62 110.02 525.88 110.51 526.22 110.95C526.56 111.39 526.98 111.75 527.48 112.03C528 112.29 528.6 112.42 529.28 112.42C529.84 112.42 530.4 112.31 530.96 112.09C531.52 111.87 531.97 111.55 532.31 111.13L534.56 113.41C533.96 114.05 533.19 114.55 532.25 114.91C531.33 115.25 530.33 115.42 529.25 115.42C528.19 115.42 527.18 115.25 526.22 114.91C525.28 114.57 524.45 114.07 523.73 113.41C523.03 112.75 522.47 111.95 522.05 111.01C521.65 110.07 521.45 109 521.45 107.8C521.45 106.64 521.65 105.59 522.05 104.65C522.47 103.71 523.03 102.91 523.73 102.25C524.43 101.59 525.24 101.08 526.16 100.72C527.1 100.36 528.1 100.18 529.16 100.18C530.22 100.18 531.24 100.38 532.22 100.78C533.22 101.18 534.01 101.73 534.59 102.43L532.13 104.59Z" fill="#006C96"/>
<path d="M536.099 107.74C536.099 106.6 536.299 105.57 536.699 104.65C537.119 103.71 537.679 102.91 538.379 102.25C539.079 101.59 539.909 101.08 540.869 100.72C541.829 100.36 542.849 100.18 543.929 100.18C545.009 100.18 546.029 100.36 546.989 100.72C547.949 101.08 548.779 101.59 549.479 102.25C550.179 102.91 550.729 103.71 551.129 104.65C551.549 105.57 551.759 106.6 551.759 107.74C551.759 108.88 551.549 109.92 551.129 110.86C550.729 111.8 550.179 112.61 549.479 113.29C548.779 113.95 547.949 114.47 546.989 114.85C546.029 115.23 545.009 115.42 543.929 115.42C542.849 115.42 541.829 115.23 540.869 114.85C539.909 114.47 539.079 113.95 538.379 113.29C537.679 112.61 537.119 111.8 536.699 110.86C536.299 109.92 536.099 108.88 536.099 107.74ZM539.759 107.74C539.759 108.3 539.839 108.86 539.999 109.42C540.179 109.98 540.439 110.48 540.779 110.92C541.119 111.36 541.549 111.72 542.069 112C542.589 112.28 543.209 112.42 543.929 112.42C544.649 112.42 545.269 112.28 545.789 112C546.309 111.72 546.739 111.36 547.079 110.92C547.419 110.48 547.669 109.98 547.829 109.42C548.009 108.86 548.099 108.3 548.099 107.74C548.099 107.18 548.009 106.63 547.829 106.09C547.669 105.53 547.419 105.03 547.079 104.59C546.739 104.15 546.309 103.8 545.789 103.54C545.269 103.26 544.649 103.12 543.929 103.12C543.209 103.12 542.589 103.26 542.069 103.54C541.549 103.8 541.119 104.15 540.779 104.59C540.439 105.03 540.179 105.53 539.999 106.09C539.839 106.63 539.759 107.18 539.759 107.74Z" fill="#006C96"/>
<path d="M572.439 100.18C573.379 100.18 574.179 100.35 574.839 100.69C575.519 101.01 576.069 101.44 576.489 101.98C576.929 102.52 577.249 103.14 577.449 103.84C577.649 104.54 577.749 105.26 577.749 106V115H574.149V107.02C574.149 106.6 574.119 106.16 574.059 105.7C573.999 105.24 573.869 104.83 573.669 104.47C573.469 104.09 573.189 103.78 572.829 103.54C572.489 103.3 572.029 103.18 571.449 103.18C570.889 103.18 570.409 103.3 570.009 103.54C569.609 103.78 569.279 104.09 569.019 104.47C568.759 104.85 568.569 105.28 568.449 105.76C568.329 106.22 568.269 106.68 568.269 107.14V115H564.669V106.3C564.669 105.4 564.449 104.66 564.009 104.08C563.589 103.48 562.919 103.18 561.999 103.18C561.459 103.18 560.989 103.3 560.589 103.54C560.189 103.76 559.859 104.05 559.599 104.41C559.359 104.77 559.169 105.19 559.029 105.67C558.909 106.13 558.849 106.6 558.849 107.08V115H555.249V100.6H558.669V102.91H558.729C558.889 102.55 559.099 102.21 559.359 101.89C559.639 101.57 559.959 101.28 560.319 101.02C560.699 100.76 561.129 100.56 561.609 100.42C562.089 100.26 562.619 100.18 563.199 100.18C564.319 100.18 565.249 100.43 565.989 100.93C566.729 101.43 567.299 102.09 567.699 102.91C568.179 102.03 568.819 101.36 569.619 100.9C570.419 100.42 571.359 100.18 572.439 100.18Z" fill="#006C96"/>
<path d="M592.079 106.36C592.079 105.9 592.009 105.46 591.869 105.04C591.749 104.62 591.549 104.25 591.269 103.93C590.989 103.61 590.629 103.36 590.189 103.18C589.769 102.98 589.269 102.88 588.689 102.88C587.609 102.88 586.689 103.21 585.929 103.87C585.189 104.51 584.779 105.34 584.699 106.36H592.079ZM595.679 107.98C595.679 108.14 595.679 108.3 595.679 108.46C595.679 108.62 595.669 108.78 595.649 108.94H584.699C584.739 109.46 584.869 109.94 585.089 110.38C585.329 110.8 585.639 111.17 586.019 111.49C586.399 111.79 586.829 112.03 587.309 112.21C587.789 112.39 588.289 112.48 588.809 112.48C589.709 112.48 590.469 112.32 591.089 112C591.709 111.66 592.219 111.2 592.619 110.62L595.019 112.54C593.599 114.46 591.539 115.42 588.839 115.42C587.719 115.42 586.689 115.25 585.749 114.91C584.809 114.55 583.989 114.05 583.289 113.41C582.609 112.77 582.069 111.99 581.669 111.07C581.289 110.13 581.099 109.07 581.099 107.89C581.099 106.73 581.289 105.68 581.669 104.74C582.069 103.78 582.609 102.97 583.289 102.31C583.969 101.63 584.769 101.11 585.689 100.75C586.629 100.37 587.639 100.18 588.719 100.18C589.719 100.18 590.639 100.35 591.479 100.69C592.339 101.01 593.079 101.5 593.699 102.16C594.319 102.8 594.799 103.61 595.139 104.59C595.499 105.55 595.679 106.68 595.679 107.98Z" fill="#006C96"/>
<path d="M607.055 104.44C606.735 104.02 606.295 103.66 605.735 103.36C605.175 103.04 604.565 102.88 603.905 102.88C603.325 102.88 602.795 103 602.315 103.24C601.835 103.48 601.595 103.88 601.595 104.44C601.595 105 601.855 105.4 602.375 105.64C602.915 105.86 603.695 106.09 604.715 106.33C605.255 106.45 605.795 106.61 606.335 106.81C606.895 107.01 607.395 107.28 607.835 107.62C608.295 107.94 608.665 108.35 608.945 108.85C609.225 109.33 609.365 109.92 609.365 110.62C609.365 111.5 609.195 112.25 608.855 112.87C608.535 113.47 608.095 113.96 607.535 114.34C606.995 114.72 606.355 114.99 605.615 115.15C604.895 115.33 604.145 115.42 603.365 115.42C602.245 115.42 601.155 115.22 600.095 114.82C599.035 114.4 598.155 113.81 597.455 113.05L599.825 110.83C600.225 111.35 600.745 111.78 601.385 112.12C602.025 112.46 602.735 112.63 603.515 112.63C603.775 112.63 604.035 112.6 604.295 112.54C604.575 112.48 604.825 112.39 605.045 112.27C605.285 112.13 605.475 111.95 605.615 111.73C605.755 111.51 605.825 111.24 605.825 110.92C605.825 110.32 605.545 109.89 604.985 109.63C604.445 109.37 603.625 109.11 602.525 108.85C601.985 108.73 601.455 108.58 600.935 108.4C600.435 108.2 599.985 107.95 599.585 107.65C599.185 107.33 598.865 106.94 598.625 106.48C598.385 106.02 598.265 105.45 598.265 104.77C598.265 103.97 598.425 103.28 598.745 102.7C599.085 102.12 599.525 101.65 600.065 101.29C600.605 100.91 601.215 100.63 601.895 100.45C602.575 100.27 603.275 100.18 603.995 100.18C605.035 100.18 606.045 100.36 607.025 100.72C608.025 101.08 608.815 101.63 609.395 102.37L607.055 104.44Z" fill="#006C96"/>
<path d="M619.995 100.6H623.445V103H623.505C623.905 102.16 624.465 101.48 625.185 100.96C625.905 100.44 626.745 100.18 627.705 100.18C627.845 100.18 627.995 100.19 628.155 100.21C628.315 100.21 628.455 100.23 628.575 100.27V103.57C628.335 103.51 628.125 103.47 627.945 103.45C627.785 103.43 627.625 103.42 627.465 103.42C626.645 103.42 625.985 103.57 625.485 103.87C624.985 104.17 624.595 104.53 624.315 104.95C624.035 105.37 623.845 105.8 623.745 106.24C623.645 106.68 623.595 107.03 623.595 107.29V115H619.995V100.6Z" fill="#006C96"/>
<path d="M640.536 106.36C640.536 105.9 640.466 105.46 640.326 105.04C640.206 104.62 640.006 104.25 639.726 103.93C639.446 103.61 639.086 103.36 638.646 103.18C638.226 102.98 637.726 102.88 637.146 102.88C636.066 102.88 635.146 103.21 634.386 103.87C633.646 104.51 633.236 105.34 633.156 106.36H640.536ZM644.136 107.98C644.136 108.14 644.136 108.3 644.136 108.46C644.136 108.62 644.126 108.78 644.106 108.94H633.156C633.196 109.46 633.326 109.94 633.546 110.38C633.786 110.8 634.096 111.17 634.476 111.49C634.856 111.79 635.286 112.03 635.766 112.21C636.246 112.39 636.746 112.48 637.266 112.48C638.166 112.48 638.926 112.32 639.546 112C640.166 111.66 640.676 111.2 641.076 110.62L643.476 112.54C642.056 114.46 639.996 115.42 637.296 115.42C636.176 115.42 635.146 115.25 634.206 114.91C633.266 114.55 632.446 114.05 631.746 113.41C631.066 112.77 630.526 111.99 630.126 111.07C629.746 110.13 629.556 109.07 629.556 107.89C629.556 106.73 629.746 105.68 630.126 104.74C630.526 103.78 631.066 102.97 631.746 102.31C632.426 101.63 633.226 101.11 634.146 100.75C635.086 100.37 636.096 100.18 637.176 100.18C638.176 100.18 639.096 100.35 639.936 100.69C640.796 101.01 641.536 101.5 642.156 102.16C642.776 102.8 643.256 103.61 643.596 104.59C643.956 105.55 644.136 106.68 644.136 107.98Z" fill="#006C96"/>
<path d="M656.387 113.17H656.297C655.937 113.81 655.357 114.34 654.557 114.76C653.757 115.16 652.847 115.36 651.827 115.36C651.247 115.36 650.637 115.28 649.997 115.12C649.377 114.98 648.797 114.74 648.257 114.4C647.737 114.04 647.297 113.58 646.937 113.02C646.597 112.44 646.427 111.73 646.427 110.89C646.427 109.81 646.727 108.95 647.327 108.31C647.947 107.67 648.737 107.18 649.697 106.84C650.657 106.5 651.717 106.28 652.877 106.18C654.057 106.06 655.207 106 656.327 106V105.64C656.327 104.74 655.997 104.08 655.337 103.66C654.697 103.22 653.927 103 653.027 103C652.267 103 651.537 103.16 650.837 103.48C650.137 103.8 649.557 104.19 649.097 104.65L647.237 102.46C648.057 101.7 648.997 101.13 650.057 100.75C651.137 100.37 652.227 100.18 653.327 100.18C654.607 100.18 655.657 100.36 656.477 100.72C657.317 101.08 657.977 101.55 658.457 102.13C658.937 102.71 659.267 103.36 659.447 104.08C659.647 104.8 659.747 105.52 659.747 106.24V115H656.387V113.17ZM656.327 108.43H655.517C654.937 108.43 654.327 108.46 653.687 108.52C653.047 108.56 652.457 108.67 651.917 108.85C651.377 109.01 650.927 109.25 650.567 109.57C650.207 109.87 650.027 110.29 650.027 110.83C650.027 111.17 650.097 111.46 650.237 111.7C650.397 111.92 650.597 112.1 650.837 112.24C651.077 112.38 651.347 112.48 651.647 112.54C651.947 112.6 652.247 112.63 652.547 112.63C653.787 112.63 654.727 112.3 655.367 111.64C656.007 110.98 656.327 110.08 656.327 108.94V108.43Z" fill="#006C96"/>
<path d="M664.001 92.32H667.601V115H664.001V92.32Z" fill="#006C96"/>
<path d="M672.028 100.6H675.628V115H672.028V100.6ZM671.518 95.71C671.518 95.13 671.728 94.63 672.148 94.21C672.588 93.77 673.138 93.55 673.798 93.55C674.458 93.55 675.008 93.76 675.448 94.18C675.908 94.58 676.138 95.09 676.138 95.71C676.138 96.33 675.908 96.85 675.448 97.27C675.008 97.67 674.458 97.87 673.798 97.87C673.138 97.87 672.588 97.66 672.148 97.24C671.728 96.8 671.518 96.29 671.518 95.71Z" fill="#006C96"/>
<path d="M677.925 103.48V100.6H680.445V96.43H683.985V100.6H687.585V103.48H683.985V110.17C683.985 110.81 684.095 111.34 684.315 111.76C684.555 112.18 685.075 112.39 685.875 112.39C686.115 112.39 686.375 112.37 686.655 112.33C686.935 112.27 687.185 112.19 687.405 112.09L687.525 114.91C687.205 115.03 686.825 115.12 686.385 115.18C685.945 115.26 685.525 115.3 685.125 115.3C684.165 115.3 683.385 115.17 682.785 114.91C682.185 114.63 681.705 114.26 681.345 113.8C681.005 113.32 680.765 112.78 680.625 112.18C680.505 111.56 680.445 110.9 680.445 110.2V103.48H677.925Z" fill="#006C96"/>
<path d="M688.031 100.6H692.021L696.041 111.07H696.101L699.671 100.6H703.421L696.611 118.09C696.351 118.75 696.071 119.33 695.771 119.83C695.471 120.35 695.111 120.78 694.691 121.12C694.271 121.48 693.771 121.75 693.191 121.93C692.631 122.11 691.951 122.2 691.151 122.2C690.851 122.2 690.541 122.18 690.221 122.14C689.921 122.12 689.611 122.07 689.291 121.99L689.591 118.87C689.831 118.95 690.061 119 690.281 119.02C690.521 119.06 690.741 119.08 690.941 119.08C691.321 119.08 691.641 119.03 691.901 118.93C692.161 118.85 692.381 118.71 692.561 118.51C692.741 118.33 692.901 118.1 693.041 117.82C693.181 117.54 693.331 117.21 693.491 116.83L694.211 115L688.031 100.6Z" fill="#006C96"/>
</svg>
