<svg xmlns="http://www.w3.org/2000/svg" xmlns:xlink="http://www.w3.org/1999/xlink" width="688.521" height="161.298" viewBox="0 0 688.521 161.298">
  <defs>
    <clipPath id="clip-path">
      <path id="Path_17" data-name="Path 17" d="M0,187.7H161.3V0H0Z" fill="none"/>
    </clipPath>
  </defs>
  <g id="anp_logo" transform="translate(-563.479 -388)">
    <g id="Group_24" data-name="Group 24" transform="translate(460.367 8.924)">
      <g id="Group_22" data-name="Group 22" transform="translate(290.812 379.076) rotate(90)" clip-path="url(#clip-path)">
        <path id="Path_15" data-name="Path 15" d="M0,8.663C0,5.775.206,2.888.413,0c0,.413.206.619.206,1.031.825,42.49,36.3,76.524,80.03,76.524S160.06,43.522,160.886,1.031V0c.206,2.888.412,5.775.412,8.663,0,47.028-36.1,85.187-80.649,85.187S0,55.691,0,8.663" transform="translate(0.619 93.644)" fill="#00a44f" fill-rule="evenodd"/>
        <path id="Path_16" data-name="Path 16" d="M0,85.187c0,2.888.206,5.569.413,8.457a8.932,8.932,0,0,0,.206-1.031c.825-42.284,36.3-76.524,80.03-76.524s79.411,34.24,80.236,76.524v1.031c.206-2.888.412-5.569.412-8.457C161.3,38.159,125.2,0,80.649,0S0,38.159,0,85.187" transform="translate(0.619 -0.825)" fill="#00a44f" fill-rule="evenodd"/>
      </g>
      <path id="Path_18" data-name="Path 18" d="M0,74.461C0,33.415,33,0,73.636,0s73.636,33.415,73.636,74.461c0,41.253-33,74.461-73.636,74.461S0,115.714,0,74.461" transform="translate(272.042 386.707) rotate(90)" fill="#00acef" fill-rule="evenodd"/>
      <path id="Path_19" data-name="Path 19" d="M31.971,5.569c0,.825.825,1.65,2.888,2.269a20.767,20.767,0,0,0,6.394,1.031c3.094,0,4.538-.825,4.538-2.269q0-.928-1.856-1.856a23.909,23.909,0,0,0-7.013-1.031,9.992,9.992,0,0,0-3.713.619A1.5,1.5,0,0,0,31.971,5.569Zm-8.663-.206c0-1.65,1.238-2.888,3.713-3.919A24.376,24.376,0,0,1,36.3,0a41.093,41.093,0,0,1,8.663.825,22.662,22.662,0,0,1,6.6,2.063,4.065,4.065,0,0,1,2.269,1.65,4.4,4.4,0,0,1,.619,2.475c0,1.65-.413,2.888-1.444,3.506-2.475,1.444-6.188,2.063-10.932,2.063-5.157,0-9.488-.619-13.2-2.269Q23.308,8.147,23.308,5.363ZM54.454,15.882V20.42c0,1.444-1.031,2.475-3.506,3.3a27.49,27.49,0,0,1-9.076,1.238A35.811,35.811,0,0,1,28.877,22.9c-3.713-1.238-5.569-2.888-5.569-4.744,0-1.238,1.031-2.269,2.681-3.094A16.726,16.726,0,0,1,32.8,13.82a16.1,16.1,0,0,1,4.95.619c1.238.413,1.856,1.031,1.856,1.65,0,.825-1.031,1.444-3.3,1.444H34.446c-1.856,0-2.681.206-2.681,1.031,0,.619.825,1.238,2.681,1.856a19.545,19.545,0,0,0,6.188.825,9.046,9.046,0,0,0,3.919-.619,2.494,2.494,0,0,0,1.238-2.475V15.263c0-1.444,1.238-2.063,3.506-2.063a7.375,7.375,0,0,1,3.919.825A1.982,1.982,0,0,1,54.454,15.882Zm-19.6,15.264,1.856.206c2.681.413,3.919,1.238,3.919,2.063,0,.413-.413.825-1.031,1.031a5.709,5.709,0,0,1-2.681.619,28.979,28.979,0,0,1-3.713-.413L22.483,32.383c-2.681-.413-3.919-1.031-3.919-1.856,0-.413.206-.825,1.031-1.031a4.08,4.08,0,0,1,2.269-.413h3.3a20.344,20.344,0,0,0,4.95-.619l3.3-1.031A35.891,35.891,0,0,1,42.7,26.2a20.727,20.727,0,0,1,8.457,1.444c2.269,1.031,3.3,2.269,3.3,3.713v3.3c0,1.444-1.031,2.063-3.506,2.063a6.2,6.2,0,0,1-3.713-.825,1.914,1.914,0,0,1-1.444-1.856V32.177c0-1.444-1.444-2.269-4.125-2.269a23.815,23.815,0,0,0-3.3.413ZM46,46.409V46c0-.825-.825-1.444-2.681-1.65L36.3,43.315a9.25,9.25,0,0,0-2.269-.206,3.065,3.065,0,0,0-1.856.413c-.413.206-.825.619-.825.825,0,.825,1.238,1.65,3.506,2.269a20.085,20.085,0,0,0,7.013,1.238C44.553,47.853,46,47.441,46,46.409Zm-.206-5.775v-1.65c0-1.444,1.238-2.063,3.506-2.063a7.375,7.375,0,0,1,3.919.825A1.982,1.982,0,0,1,54.454,39.6v2.063c0,.825-.825,1.444-2.681,1.856,1.856.825,2.681,1.65,2.681,2.269v1.856c0,1.238-1.031,2.063-3.094,2.888a28.775,28.775,0,0,1-8.251,1.031A44.972,44.972,0,0,1,29.5,49.5c-4.125-1.444-6.188-3.094-6.188-4.744q0-2.166,3.713-3.094c-2.063-.413-3.094-1.238-3.094-2.063q0-.619,1.238-1.238a9.155,9.155,0,0,1,2.681-.413c.619,0,1.65.206,2.681.206l1.031.206Zm0,15.263v-1.65c0-1.238,1.238-2.063,3.506-2.063a7.375,7.375,0,0,1,3.919.825,1.982,1.982,0,0,1,1.238,1.856v2.888A1.914,1.914,0,0,1,53.01,59.61a8.618,8.618,0,0,1-3.713.619,18.941,18.941,0,0,1-4.125-.413l-39.6-6.394-1.031-.206C1.444,52.8,0,51.978,0,50.947c0-.413.413-.825,1.031-1.031A5.71,5.71,0,0,1,3.713,49.3c.825,0,1.856.206,2.681.206l1.238.206Zm-2.475,13.82c1.031-.413,1.856-.619,2.269-.825A1.744,1.744,0,0,0,46,67.654c0-.619-.619-1.238-2.063-1.65a31.768,31.768,0,0,0-8.869-1.238c-2.475,0-3.713.413-3.713,1.444s1.444,1.856,4.538,2.269c.413,0,.619,0,.825.206Zm8.044,1.238,24.133,3.919V5.775c0-.413.206-.619,1.238-.619h3.713c.619,0,1.238,0,1.238.413V76.524c0,1.031.413,2.681-2.888,2.681-.825,0-2.063-.206-3.713-.413L27.639,71.161c-2.475-.413-3.713-1.238-3.713-2.063,0-.619.825-1.238,2.475-1.65-2.063-.825-3.094-1.65-3.094-2.681,0-1.238,1.238-2.063,3.3-2.681a29.848,29.848,0,0,1,8.251-1.031q9.9,0,16.089,2.475a6.261,6.261,0,0,1,2.888,1.65,3.318,3.318,0,0,1,.619,2.269,5.52,5.52,0,0,1-.413,2.269A6.438,6.438,0,0,1,51.36,70.955ZM45.79,78.793V76.936c0-1.238,1.238-2.063,3.506-2.063a10.072,10.072,0,0,1,3.919.825,1.982,1.982,0,0,1,1.238,1.856v3.506c0,.619-.413,1.031-1.444,1.444a7.063,7.063,0,0,1-3.713.825,21.941,21.941,0,0,1-4.125-.619l-8.663-1.238a8.544,8.544,0,0,0-2.063-.206,3.546,3.546,0,0,0-1.65.206c-.619.206-.825.413-.825.825,0,1.031,2.063,2.063,6.188,2.681l11.551,1.856c3.507.619,5.363,1.444,5.363,2.475,0,.413-.413.825-1.031,1.238a9.154,9.154,0,0,1-2.681.413,11.836,11.836,0,0,1-2.475-.206l-1.238-.206-19.8-3.3c-2.681-.413-3.919-1.031-3.919-2.063,0-.825,1.031-1.444,2.681-1.65-2.063-1.238-3.3-2.269-3.3-3.3s.825-1.856,2.269-2.475A13.8,13.8,0,0,1,30.94,76.73a31,31,0,0,1,4.125.412Zm-11.757,30.94v1.238a7.94,7.94,0,0,0,4.332,7.219,17.373,17.373,0,0,0,6.807,2.681,26.942,26.942,0,0,0,8.044,1.031,20.581,20.581,0,0,0,6.6-.825c1.856-.825,2.681-1.444,2.681-2.475,0-1.444-2.681-2.888-8.044-4.125ZM24.545,99.006,10.313,96.738a3.832,3.832,0,0,0,2.681,2.681,47.351,47.351,0,0,0,8.869,2.681l2.681.619Zm9.488,1.444v4.332l22.9,5.363c10.932,2.475,16.295,5.363,16.295,8.869,0,2.063-1.856,3.713-5.775,5.157-3.713,1.444-8.251,2.063-13.82,2.063a46.349,46.349,0,0,1-13.2-1.65,31.706,31.706,0,0,1-10.313-4.332,13.181,13.181,0,0,1-4.332-4.744,15.434,15.434,0,0,1-1.238-6.807v-1.238l-5.775-1.238c-8.044-1.65-13.407-3.919-16.295-6.394A8.546,8.546,0,0,1,0,93.437c0-.619.413-1.031,1.031-1.444a6.888,6.888,0,0,1,3.094-.619,9.25,9.25,0,0,1,2.269.206l.825.206,17.326,2.681v-1.65c0-1.238,1.238-1.856,3.919-1.856a10.994,10.994,0,0,1,3.919.825c1.031.413,1.65,1.031,1.65,1.856v2.269l10.932,1.856V94.675c0-1.031,1.238-1.65,3.919-1.65a11.164,11.164,0,0,1,3.919.619c1.238.619,1.65,1.031,1.65,1.856v3.713c0,1.031-.619,1.65-1.65,2.269a10.869,10.869,0,0,1-4.744.825,43.864,43.864,0,0,1-6.188-.619" transform="translate(260.697 415.378) rotate(90)" fill="#fefefe"/>
    </g>
    <g id="Group_27" data-name="Group 27" transform="translate(0 4)">
      <text id="AN_NHAT_PLASTIC_CO._LTD" data-name="AN NHAT PLASTIC CO., LTD" transform="translate(775 456)" fill="#00acef" font-size="36" font-family="AvenirNext-Bold, Avenir Next" font-weight="700"><tspan x="0" y="0">AN NHAT PLASTIC CO., LTD</tspan></text>
      <text id="Where_imagination_becomes_reality" data-name="Where imagination becomes reality" transform="translate(774 498)" fill="#006c96" font-size="29" font-family="AvenirNext-DemiBold, Avenir Next" font-weight="300"><tspan x="0" y="0">Where imagination becomes reality</tspan></text>
    </g>
  </g>
</svg>
